<svg xmlns="http://www.w3.org/2000/svg" xmlns:xlink="http://www.w3.org/1999/xlink" width="500" zoomAndPan="magnify" viewBox="0 0 375 374.999991" height="500" preserveAspectRatio="xMidYMid meet" version="1.0"><defs><g/><clipPath id="2ab6d3cece"><path d="M 44.230469 110.429688 L 324.730469 110.429688 L 324.730469 273.929688 L 44.230469 273.929688 Z M 44.230469 110.429688 " clip-rule="nonzero"/></clipPath></defs><rect x="-37.5" width="450" fill="#ffffff" y="-37.499999" height="449.999989" fill-opacity="1"/><rect x="-37.5" width="450" fill="#ffffff" y="-37.499999" height="449.999989" fill-opacity="1"/><g clip-path="url(#2ab6d3cece)"><path fill="#000000" d="M 44.230469 110.429688 L 324.730469 110.429688 L 324.730469 273.929688 L 44.230469 273.929688 Z M 44.230469 110.429688 " fill-opacity="1" fill-rule="nonzero"/></g><g fill="#ffffff" fill-opacity="1"><g transform="translate(24.176225, 266.74702)"><g><path d="M 82.078125 -158.265625 C 101.972656 -158.265625 118.328125 -154.234375 131.140625 -146.171875 C 143.953125 -138.109375 150.503906 -126.160156 150.796875 -110.328125 L 150.796875 -107.625 L 104 -107.625 L 104 -108.53125 C 104 -113.050781 102.34375 -116.816406 99.03125 -119.828125 C 95.71875 -122.847656 90.664062 -124.359375 83.875 -124.359375 C 77.25 -124.359375 72.164062 -123.375 68.625 -121.40625 C 65.082031 -119.445312 63.3125 -117.035156 63.3125 -114.171875 C 63.3125 -110.109375 65.722656 -107.09375 70.546875 -105.125 C 75.367188 -103.164062 83.128906 -101.132812 93.828125 -99.03125 C 106.335938 -96.46875 116.625 -93.789062 124.6875 -91 C 132.75 -88.207031 139.796875 -83.644531 145.828125 -77.3125 C 151.859375 -70.988281 154.945312 -62.398438 155.09375 -51.546875 C 155.09375 -33.160156 148.875 -19.519531 136.4375 -10.625 C 124.007812 -1.726562 107.394531 2.71875 86.59375 2.71875 C 62.320312 2.71875 43.441406 -1.347656 29.953125 -9.484375 C 16.460938 -17.628906 9.71875 -32.03125 9.71875 -52.6875 L 56.96875 -52.6875 C 56.96875 -44.84375 59.003906 -39.601562 63.078125 -36.96875 C 67.148438 -34.332031 73.484375 -33.015625 82.078125 -33.015625 C 88.398438 -33.015625 93.632812 -33.691406 97.78125 -35.046875 C 101.925781 -36.398438 104 -39.1875 104 -43.40625 C 104 -47.175781 101.703125 -50.003906 97.109375 -51.890625 C 92.515625 -53.773438 85.015625 -55.769531 74.609375 -57.875 C 61.953125 -60.59375 51.476562 -63.421875 43.1875 -66.359375 C 34.894531 -69.296875 27.65625 -74.15625 21.46875 -80.9375 C 15.289062 -87.71875 12.203125 -96.914062 12.203125 -108.53125 C 12.203125 -125.5625 18.796875 -138.109375 31.984375 -146.171875 C 45.179688 -154.234375 61.878906 -158.265625 82.078125 -158.265625 Z M 82.078125 -158.265625 "/></g></g></g><g fill="#ffffff" fill-opacity="1"><g transform="translate(175.202714, 274.809309)"><g><path d="M 105.125 0 L 99.421875 -19.0625 L 52.078125 -19.0625 L 46.375 0 L 1.96875 0 L 51.28125 -135.1875 L 101.78125 -135.1875 L 151.109375 0 Z M 61.109375 -49.328125 L 90.390625 -49.328125 L 76.234375 -97.46875 L 75.453125 -97.46875 Z M 61.109375 -49.328125 "/></g></g></g></svg>